<?xml version="1.0" encoding="utf-8"?>
<!-- Generator: Adobe Illustrator 20.1.0, SVG Export Plug-In . SVG Version: 6.00 Build 0)  -->
<svg version="1.1" id="Capa_1" xmlns="http://www.w3.org/2000/svg" xmlns:xlink="http://www.w3.org/1999/xlink" x="0px" y="0px"
	 viewBox="0 0 160.5 58" style="enable-background:new 0 0 160.5 58;" xml:space="preserve">
<style type="text/css">
	.st0{fill:#96BB3A;}
	.st1{fill:#FFFFFF;}
	.st2{fill:none;}
	.st3{opacity:0.9;fill:#FFFFFF;enable-background:new    ;}
	.st4{fill:#FFFFFF;stroke:#FFFFFF;stroke-width:0.4252;stroke-miterlimit:10;enable-background:new    ;}
</style>
<polygon class="st0" points="50.4,48.5 13,48.4 22,46.5 42.4,46.4 "/>
<polygon class="st1" points="50.4,48.5 13,48.4 22,46.5 42.4,46.4 "/>
<polygon class="st2" points="24.4,26 24.4,11.7 30.2,8.8 30.2,22.9 "/>
<path class="st1" d="M30.1,36.8l-8.6,4.8v5h8.6L30.1,36.8z M28.3,42.7c-0.3,0.5-1,1.2-1.1,1.7c0.4-1.1,0.1-2.2,0.2-3.3
	c0-0.9,0.1-2.2,0.7-2.9l0,0.1c0,0.6,0.2,1.5,0,2.1c0.3-0.5,0.4-1.6,0.3-2.2c0.5,0.1,0.8,1.5,0.7,2.3C29,41.4,28.7,42.1,28.3,42.7z"
	/>
<g>
	<path class="st1" d="M26.9,33.9c0,0.5,0.5,1.4,0.8,1.9l0.3-0.2C27.7,35.2,27.1,34.5,26.9,33.9z"/>
	<path class="st1" d="M24.3,28.8l0,8.9l3.3-1.8c-0.5-0.1-1.3-1-1.6-1.5c-0.4-0.8-0.5-1.6-0.5-2.3c0-0.6,0.2-1.5,0.1-2
		c0.2,1.2,1,2,1.5,2.9c0.4,0.7,1,1.8,0.9,2.7l2.2-1.2l0-9L24.3,28.8z"/>
</g>
<g>
	<path class="st1" d="M36.7,34.3l-4.3,2.1l0,10.1h4.2c-0.2-0.3-0.4-0.5-0.5-0.8c-0.4-0.8-0.4-1.6-0.3-2.3c0-0.6,0.3-1.5,0.2-2
		c0.2,1.2,0.9,2,1.3,3c0.3,0.6,0.7,1.4,0.8,2.1h4v-9.8L36.7,34.3z"/>
	<path class="st1" d="M37.2,45.3c0,0.3,0.1,0.8,0.3,1.2h0.3C37.5,46.1,37.2,45.7,37.2,45.3z"/>
</g>
<path class="st3" d="M63.8,34.9c0.3,0.1,0.9,0.2,1.1,0.2c0.1,0,0.2,0.2,0.3,0.5c0,0.7,0.4,1.9,0.4,2.8c0,0.3-0.2,0.6-0.4,0.6
	c-0.1,0-0.3-0.3-0.4-0.6c-0.1-0.4-0.5-1.2-0.9-1.6c-0.5-0.6-1.8-1.6-3.6-1.6c-3.1,0-5,2.9-5,6.4c0,1.5,0.2,2.8,0.9,4
	c0.9,1.6,2.4,2.8,4.4,2.8c0.3,0,0.7-0.1,1.1-0.4c0.3-0.2,0.4-0.8,0.4-1.8c0-0.8,0-1.5-0.1-1.8c-0.1-0.5-0.3-1-1.7-1.1
	c-0.3,0-0.7-0.2-0.7-0.4c0-0.2,0.3-0.3,0.8-0.3c1,0,2.1,0.1,2.7,0.1c0.5,0,2-0.1,2.8-0.1c0.4,0,0.6,0.2,0.6,0.4
	c0,0.1-0.2,0.4-0.5,0.4c-0.8,0.2-0.7,0.5-0.8,0.8c0,0.3-0.1,1.8-0.1,2.7c0,0.3,0,0.3,0.4,0.7c0.1,0.1,0.2,0.2,0.2,0.4
	c0,0.1-0.2,0.3-0.3,0.4c-0.4,0.1-1.1,0.3-2,0.5c-0.9,0.2-2.9,0.5-3.4,0.5c-2.4,0-4.7-0.7-6-1.9c-1-1-2.3-2.5-2.3-5.6
	c0-2.4,1-4,2.4-5.3c1.4-1.2,3.7-2,6.1-2C61.7,34.5,63,34.7,63.8,34.9"/>
<path class="st3" d="M70,48.9c-0.4,0-0.6-0.2-0.6-0.3c0-0.2,0.2-0.3,0.6-0.4c0.5-0.2,0.7-0.4,0.8-0.7c0.1-0.3,0.1-2,0.1-4
	c0-0.7,0-1,0-1.3c0-0.2-0.3-0.4-0.7-0.8c-0.1-0.2-0.3-0.3-0.3-0.4c0-0.2,0.3-0.4,0.7-0.4c1-0.2,2.5-0.7,2.9-0.8
	c0.1,0,0.2,0.2,0.2,0.2c-0.1,1-0.1,4-0.1,5.3c0,0.4,0,1.1,0,1.9c0,0.6,0.2,0.8,0.8,1c0.3,0.1,0.5,0.2,0.5,0.4s-0.3,0.3-0.7,0.3
	c-0.2,0-1.4-0.1-1.9-0.1C71.5,48.8,70.3,48.9,70,48.9 M73.6,36.5c0,0.8-0.8,1.5-1.4,1.5c-0.2,0-0.7-0.1-1-0.4
	c-0.3-0.2-0.5-0.6-0.5-1.1c0-0.3,0.1-0.8,0.4-1c0.3-0.3,0.8-0.5,1.2-0.5C73.2,35,73.6,36,73.6,36.5"/>
<path class="st3" d="M85.6,48.1c-1,0.7-2.5,1-3.4,1c-0.8,0-2.2-0.2-3.1-0.5c-0.1,0-0.2,0-0.5,0.1c-0.1,0-0.2,0.1-0.3,0.1
	c-0.1,0-0.3-0.2-0.3-0.3c0.1-1.7,0.2-5.6,0.2-7.4c0-2.1,0-4.7-0.1-5.1c0-0.2-0.1-0.4-0.4-0.6C77.2,35,77,34.9,77,34.8
	c0-0.2,0.2-0.4,0.4-0.4c0.8-0.2,1.8-0.4,2.7-0.8c0.5-0.2,0.6-0.3,0.8-0.3c0.1,0,0.2,0.2,0.2,0.4c-0.1,1.6-0.2,3.3-0.2,5.1v1.6
	c0,0.1,0,0.1,0.1,0.1c0.7-0.4,1.7-0.6,2.2-0.6c1.2,0,2.2,0.4,2.9,1c1,0.8,1.5,2,1.5,3.5C87.8,46,86.7,47.3,85.6,48.1 M83.8,41.9
	c-0.3-0.4-1.1-1-1.9-1c-0.2,0-0.4,0-0.6,0.1c-0.1,0-0.2,0.2-0.2,0.2c0,0.4,0,0.7,0,1.2c0,2,0.1,3.5,0.2,4.1c0,0.1,0.2,0.9,0.7,1.3
	c0.4,0.4,0.7,0.4,1,0.4c0.2,0,0.5-0.1,0.9-0.6c0.6-0.7,0.8-1.9,0.8-3C84.7,43.7,84.3,42.6,83.8,41.9"/>
<path class="st3" d="M91.1,40.7c0.9-0.3,2.1-0.6,2.6-0.9c0.2-0.2,0.5-0.3,0.6-0.3c0.2,0,0.3,0.2,0.3,0.3c0,0.4-0.1,0.8-0.1,1.3
	c0,0,0.1,0.2,0.2,0.1c0.6-0.7,1.6-1.4,2.3-1.4c1,0,1.4,0.6,1.4,1c0,0.1-0.1,0.3-0.1,0.4c-0.2,0.4-1,1.4-1.2,1.4
	c-0.1,0-0.4,0-0.4-0.1c-0.2-0.2-1.1-0.7-1.5-0.7c-0.1,0-0.2,0-0.4,0.1s-0.2,0.2-0.2,0.4c0,0.4,0.1,4.2,0.1,4.6
	c0,0.7,0.2,1.1,0.5,1.2c0.2,0,0.7,0.2,0.9,0.3c0.4,0.1,0.5,0.3,0.5,0.4c0,0.2-0.3,0.3-0.6,0.3c-0.7,0-2.1-0.1-3.4-0.1
	c-0.4,0-0.9,0.1-1.4,0.1c-0.3,0-0.6-0.1-0.6-0.3c0-0.2,0.4-0.3,0.5-0.4c0.8-0.3,0.8-0.5,0.8-1.9v-3.4c0-0.5-0.1-0.8-0.2-0.9
	c-0.2-0.2-0.8-0.8-0.8-0.9C90.8,41.1,90.8,40.7,91.1,40.7"/>
<path class="st3" d="M107.4,41c0.2,0.3,0.5,0.9,0.5,2c0,0.9-0.1,3.4-0.1,3.7c0,0.4,0.3,0.8,0.8,0.8c0.1,0,0.6-0.2,0.7-0.2
	c0.1,0,0.1,0,0.1,0c0.1,0.1,0.1,0.3,0.1,0.4c0,0.4-1.1,1.6-2.4,1.6c-0.7,0-1.4-0.1-1.8-1c0-0.1-0.2-0.1-0.2-0.1
	c-0.4,0.3-1.3,0.8-1.6,0.9c-0.2,0.1-0.6,0.2-1,0.2c-0.8,0-1.8-1-1.8-2.3c0-0.4,0.2-0.8,0.4-1.2s0.6-0.4,0.8-0.5
	c0.6-0.2,2.7-0.8,3.2-1c0.2,0,0.3-0.2,0.3-0.3c0-0.2,0.1-1.4,0-1.6c0-0.5-0.4-1.4-1.4-1.4c-0.2,0-0.4,0-0.6,0.1
	c-0.1,0-0.1,0.2-0.1,1.1c0,0.1,0,0.1-0.1,0.2c-0.1,0.1-2,1-2.2,1c-0.1,0-0.3-0.2-0.3-0.3c0-0.6,0.4-1.2,2-2.2c0.9-0.6,2-0.8,2.3-0.8
	C106.4,39.7,107.1,40.5,107.4,41 M105,47.4c0.1-0.1,0.1-0.2,0.2-0.4c0-0.2,0.1-1.2,0.1-2.1c0-0.1-0.1-0.2-0.1-0.2
	c-0.2,0-1.3,0.3-1.6,0.5c-0.3,0.2-0.4,0.3-0.4,0.9c0,1,0.8,1.5,1.2,1.5C104.5,47.6,104.9,47.5,105,47.4"/>
<path class="st3" d="M112.4,34.2c0.9-0.2,2.2-0.4,3.2-1.1c0.1,0,0.3,0.1,0.3,0.2c-0.1,0.9-0.2,6.3-0.2,9.8c0,1,0,3.3,0.1,4
	c0,0.6,0.2,0.8,0.9,1c0.3,0.1,0.4,0.2,0.4,0.4c0,0.2-0.4,0.3-0.6,0.3c-0.5,0-2-0.1-2.4-0.1c-0.5,0-1.7,0.1-2.1,0.1
	c-0.5,0-0.7-0.2-0.7-0.3c0-0.3,0.3-0.4,0.6-0.4c0.6-0.2,0.8-0.5,0.8-1.6c0.1-1,0.1-3.6,0.1-7.1c0-1,0-2.9,0-3.6
	c0-0.3-0.2-0.4-0.6-0.8c-0.3-0.2-0.4-0.4-0.4-0.5C111.9,34.5,112.1,34.3,112.4,34.2"/>
<path class="st3" d="M125.5,40c0.1,0,0.4,0.1,0.4,0.3c0-0.1,0.1,0.7,0.1,0.9c0,0.2-0.4,0.3-0.6,0.3h-2c-0.2,0-0.2,0.1-0.2,0.2V46
	c0,0.6,0.1,0.8,0.3,1c0.2,0.2,0.7,0.4,1,0.4c0.2,0,0.7-0.2,0.9-0.3c0.2-0.1,0.3-0.2,0.4-0.2c0.1,0,0.2,0.2,0.2,0.4
	c0,0.2-0.2,0.6-0.4,0.7c-0.6,0.7-1.6,1.1-2.6,1.1c-0.9,0-1.7-0.4-2.1-0.9c-0.3-0.4-0.4-0.6-0.4-1.6c0-0.8,0.1-4,0.1-4.8
	c0-0.2-0.4-0.3-0.9-0.5c-0.2-0.1-0.2-0.3-0.2-0.4c0-0.1,0-0.1,0.1-0.2c1.3-0.8,2-1.3,2.6-1.9c0.3-0.3,0.4-0.5,0.5-0.5
	c0.2,0,0.5,0.3,0.5,0.4v1.2c0,0.1,0.1,0.2,0.2,0.2C123.8,40,125.4,40,125.5,40"/>
<path class="st3" d="M135.4,41c0.2,0.3,0.5,0.9,0.5,2c0,0.9-0.1,3.4-0.1,3.7c0,0.4,0.3,0.8,0.8,0.8c0.1,0,0.6-0.2,0.7-0.2
	c0.1,0,0.1,0,0.1,0c0.1,0.1,0.1,0.3,0.1,0.4c0,0.4-1.1,1.6-2.4,1.6c-0.7,0-1.4-0.1-1.8-1c0-0.1-0.2-0.1-0.2-0.1
	c-0.4,0.3-1.3,0.8-1.6,0.9c-0.2,0.1-0.6,0.2-1,0.2c-0.8,0-1.8-1-1.8-2.3c0-0.4,0.2-0.8,0.4-1.2c0.2-0.3,0.6-0.4,0.8-0.5
	c0.6-0.2,2.7-0.8,3.2-1c0.2,0,0.3-0.2,0.3-0.3c0-0.2,0.1-1.4,0-1.6c0-0.5-0.4-1.4-1.4-1.4c-0.2,0-0.4,0-0.6,0.1
	c-0.1,0-0.1,0.2-0.1,1.1c0,0.1,0,0.1-0.1,0.2c-0.1,0.1-2,1-2.2,1c-0.1,0-0.3-0.2-0.3-0.3c0-0.6,0.4-1.2,2-2.2c0.9-0.6,2-0.8,2.3-0.8
	C134.4,39.7,135,40.5,135.4,41 M133,47.4c0.1-0.1,0.1-0.2,0.2-0.4c0-0.2,0.1-1.2,0.1-2.1c0-0.1-0.1-0.2-0.1-0.2
	c-0.2,0-1.3,0.3-1.6,0.5c-0.3,0.2-0.4,0.3-0.4,0.9c0,1,0.8,1.5,1.2,1.5C132.4,47.6,132.9,47.5,133,47.4"/>
<path class="st3" d="M140.3,40.7c0.9-0.3,2.1-0.6,2.6-0.9c0.2-0.2,0.5-0.3,0.6-0.3c0.2,0,0.3,0.2,0.3,0.3c0,0.4-0.1,0.8-0.1,1.3
	c0,0,0.1,0.2,0.2,0.1c0.6-0.7,1.6-1.4,2.3-1.4c1,0,1.4,0.6,1.4,1c0,0.1-0.1,0.3-0.1,0.4c-0.2,0.4-1,1.4-1.2,1.4
	c-0.1,0-0.4,0-0.4-0.1c-0.2-0.2-1.1-0.7-1.5-0.7c-0.1,0-0.2,0-0.4,0.1c-0.1,0.1-0.2,0.2-0.2,0.4c0,0.4,0.1,4.2,0.1,4.6
	c0,0.7,0.2,1.1,0.5,1.2c0.2,0,0.7,0.2,0.9,0.3c0.4,0.1,0.5,0.3,0.5,0.4c0,0.2-0.3,0.3-0.6,0.3c-0.7,0-2.1-0.1-3.4-0.1
	c-0.4,0-0.9,0.1-1.4,0.1c-0.3,0-0.6-0.1-0.6-0.3c0-0.2,0.4-0.3,0.5-0.4c0.8-0.3,0.8-0.5,0.8-1.9v-3.4c0-0.5-0.1-0.8-0.2-0.9
	c-0.2-0.2-0.8-0.8-0.8-0.9C140,41.1,140.1,40.7,140.3,40.7"/>
<path class="st4" d="M125.9,32.5l-0.1-1.3c-0.2,0.5-0.6,0.8-1,1.1c-0.4,0.3-1,0.4-1.5,0.4c-1,0-1.8-0.3-2.4-1
	c-0.6-0.7-0.9-1.6-0.9-2.8c0-1.2,0.3-2.1,0.9-2.8s1.4-1,2.4-1c0.8,0,1.5,0.2,2.1,0.6s0.8,1,0.9,1.7h-0.7c-0.1-0.5-0.4-1-0.8-1.3
	c-0.4-0.3-0.9-0.5-1.5-0.5c-0.8,0-1.5,0.3-1.9,0.8c-0.5,0.6-0.7,1.3-0.7,2.4c0,1,0.2,1.8,0.7,2.4c0.5,0.6,1.1,0.9,1.9,0.9
	c0.8,0,1.4-0.2,1.9-0.7c0.4-0.5,0.7-1.1,0.7-2v0h-2.4v-0.6h3v3.7L125.9,32.5L125.9,32.5z"/>
<path class="st4" d="M127.7,32.5v-5.2h0.6v0.9c0.2-0.4,0.4-0.6,0.6-0.8c0.3-0.2,0.6-0.3,1-0.3h0.1v0.6h-0.1c-0.5,0-0.9,0.2-1.2,0.5
	c-0.3,0.3-0.4,0.8-0.4,1.4v2.9L127.7,32.5L127.7,32.5L127.7,32.5z"/>
<path class="st4" d="M134.9,27.3v5.2h-0.6v-0.8c-0.2,0.3-0.4,0.6-0.7,0.7c-0.3,0.2-0.6,0.2-1,0.2c-0.6,0-1-0.2-1.3-0.5
	c-0.3-0.3-0.4-0.8-0.4-1.4v-3.5h0.6v3.4c0,0.5,0.1,0.9,0.3,1.1c0.2,0.2,0.5,0.3,1,0.3c0.5,0,0.9-0.2,1.2-0.5
	c0.3-0.3,0.4-0.7,0.4-1.3v-3.1L134.9,27.3L134.9,27.3L134.9,27.3z"/>
<path class="st4" d="M136.3,34.6v-7.3h0.6v0.9c0.2-0.4,0.4-0.6,0.7-0.8c0.3-0.2,0.7-0.3,1.1-0.3c0.7,0,1.3,0.2,1.7,0.7
	c0.4,0.5,0.6,1.2,0.6,2c0,0.9-0.2,1.5-0.6,2s-1,0.7-1.7,0.7c-0.4,0-0.8-0.1-1-0.3s-0.5-0.4-0.7-0.8v3H136.3z M136.9,29.9
	c0,0.7,0.2,1.2,0.5,1.6s0.7,0.6,1.3,0.6c0.6,0,1-0.2,1.3-0.6c0.3-0.4,0.5-0.9,0.5-1.6c0-0.7-0.2-1.3-0.5-1.6
	c-0.3-0.4-0.7-0.6-1.3-0.6c-0.6,0-1,0.2-1.3,0.6C137.1,28.6,136.9,29.2,136.9,29.9"/>
<path class="st4" d="M141.9,29.9c0-0.9,0.2-1.6,0.6-2c0.4-0.5,1-0.7,1.8-0.7c0.8,0,1.4,0.2,1.8,0.7c0.4,0.5,0.6,1.2,0.6,2
	c0,0.9-0.2,1.5-0.6,2c-0.4,0.5-1,0.7-1.8,0.7c-0.8,0-1.4-0.2-1.8-0.7C142.1,31.5,141.9,30.8,141.9,29.9 M142.5,29.9
	c0,0.7,0.2,1.2,0.5,1.6c0.3,0.4,0.7,0.6,1.3,0.6c0.6,0,1-0.2,1.3-0.6c0.3-0.4,0.5-0.9,0.5-1.6c0-0.7-0.2-1.3-0.5-1.6
	c-0.3-0.4-0.7-0.6-1.3-0.6c-0.6,0-1,0.2-1.3,0.6C142.7,28.6,142.5,29.2,142.5,29.9"/>
<g>
	<path class="st1" d="M28.6,22.3c0.2,0.3,0.6,0.6,1,0.9l0.3-0.2C29.4,22.9,28.9,22.6,28.6,22.3z"/>
	<path class="st1" d="M28,23.2c-0.8-0.5-1.2-1.1-1.5-1.8c-0.3-0.5-0.5-1.4-0.9-1.8c0.8,0.9,1.9,1.2,2.7,1.8c0.6,0.4,1.4,0.9,1.9,1.5
		l0,0V8.8l-3.8,1.9c0.6,0.4,1.3,0.7,1.8,1c0.7,0.4,1.7,1,1.9,1.8l0-0.1c-0.5-0.2-1.3-0.5-1.6-0.9c0.2,0.4,1,1,1.5,1.2
		c-0.3,0.4-1.5-0.1-2.1-0.4c-0.7-0.4-1-1-1.3-1.6c-0.2-0.2-0.3-0.6-0.4-1l-1.9,0.9V26l4.5-2.4C28.5,23.5,28.2,23.4,28,23.2z"/>
</g>
<path class="st1" d="M32.5,14.7v8.1c0.2-0.5,1-1.1,1.5-1.4c0.8-0.4,1.6-0.4,2.3-0.4c0.6,0,1.5,0.3,2,0.2c-1.2,0.2-2,1-2.9,1.4
	c-0.8,0.4-1.9,1-2.9,0.8l0.1,0c0.5-0.3,1.2-0.9,1.8-1c-0.5,0-1.5,0.4-2,0.7v10.8l4.2-1.9l4.8,2.1V17.5L32.5,14.7z M34.1,31.5
	c-0.2,0.1-0.6,0.3-0.9,0.3h0c0.2-0.1,0.4-0.3,0.6-0.3c-0.2,0-0.5,0.1-0.7,0.3c-0.1-0.2,0.3-0.5,0.5-0.6C34,31,34.2,31,34.4,31
	c0.2,0,0.5,0.1,0.6,0.1C34.7,31.1,34.4,31.3,34.1,31.5z M34.6,26.8c-0.3,0.1-0.6,0.3-0.9,0.3l0,0c0.2-0.1,0.4-0.3,0.6-0.3
	c-0.2,0-0.5,0.1-0.7,0.2c-0.1-0.1,0.3-0.5,0.5-0.6c0.3-0.1,0.5-0.1,0.7-0.1c0.2,0,0.5,0.1,0.6,0.1C35.1,26.4,34.9,26.6,34.6,26.8z
	 M37.7,27.9c-0.2,0.1-0.6,0.3-0.9,0.3l0,0c0.2-0.1,0.4-0.3,0.6-0.3c-0.2,0-0.5,0.1-0.7,0.2c-0.1-0.1,0.3-0.5,0.5-0.6
	c0.2-0.1,0.5-0.1,0.7-0.1c0.2,0,0.5,0.1,0.6,0C38.3,27.5,38,27.8,37.7,27.9z M40,30.1c-0.2,0.1-0.6,0.3-0.9,0.3v0h0
	c0.2-0.1,0.4-0.3,0.6-0.3c-0.2,0-0.5,0.1-0.7,0.3c-0.1-0.1,0.3-0.5,0.5-0.6c0.2-0.1,0.5-0.1,0.7-0.1c0.2,0,0.5,0.1,0.6,0.1
	C40.6,29.7,40.3,29.9,40,30.1z M40,24.8c-0.2,0.1-0.6,0.3-0.9,0.3h0c0.2-0.1,0.4-0.3,0.6-0.3c-0.2,0-0.5,0.1-0.7,0.3
	c-0.1-0.2,0.3-0.5,0.5-0.6c0.2-0.1,0.5-0.1,0.7-0.1c0.2,0,0.5,0.1,0.6,0.1C40.6,24.4,40.3,24.7,40,24.8z M40,19.7
	c-0.2,0.1-0.6,0.3-0.9,0.3h0c0.2-0.1,0.4-0.3,0.6-0.3c-0.2,0-0.5,0.1-0.7,0.2c-0.1-0.1,0.3-0.5,0.5-0.6c0.2-0.1,0.5-0.1,0.7-0.1
	c0.2,0,0.5,0.1,0.6,0.1C40.6,19.3,40.3,19.6,40,19.7z"/>
</svg>
