<?xml version="1.0" encoding="utf-8"?>
<!-- Generator: Adobe Illustrator 20.1.0, SVG Export Plug-In . SVG Version: 6.00 Build 0)  -->
<svg version="1.1" id="Capa_1" xmlns="http://www.w3.org/2000/svg" xmlns:xlink="http://www.w3.org/1999/xlink" x="0px" y="0px"
	 viewBox="0 0 160.5 58" style="enable-background:new 0 0 160.5 58;" xml:space="preserve">
<style type="text/css">
	.st0{fill:#96BB3A;}
	.st1{fill:#3174B5;}
	.st2{fill:#69893A;}
	.st3{fill:#AF814D;}
	.st4{fill:#E7B146;}
	.st5{fill:#795125;}
	.st6{fill:#FFFFFF;}
	.st7{fill:#8D6238;}
	.st8{fill:#DD9427;}
	.st9{fill:#69893A;stroke:#69893A;stroke-width:0.4252;stroke-linecap:round;stroke-linejoin:round;stroke-miterlimit:10;}
</style>
<g>
	<polygon class="st0" points="50.4,48.5 13,48.4 22,46.5 42.4,46.4 	"/>
	<polygon class="st0" points="50.4,48.5 13,48.4 22,46.5 42.4,46.4 	"/>
	<polygon class="st1" points="24.4,26 24.4,11.7 30.2,8.8 30.2,22.9 	"/>
	<polygon class="st0" points="24.4,26 24.4,11.7 30.2,8.8 30.2,22.9 	"/>
	<polygon class="st2" points="41.5,17.5 32.5,14.7 32.5,33.9 36.8,32.1 41.5,34.2 	"/>
	<polygon class="st2" points="41.5,17.5 32.5,14.7 32.5,33.9 36.8,32.1 41.5,34.2 	"/>
	<polygon class="st3" points="42.2,46.5 42.2,36.7 36.7,34.3 32.4,36.4 32.5,46.5 	"/>
	<polygon class="st4" points="42.2,46.5 42.2,36.7 36.7,34.3 32.4,36.4 32.5,46.5 	"/>
	<polygon class="st2" points="21.5,46.7 21.5,41.7 30.1,36.8 30.2,46.7 	"/>
	<polygon class="st2" points="21.5,46.7 21.5,41.7 30.1,36.8 30.2,46.7 	"/>
	<polygon class="st5" points="24.3,28.8 24.3,37.7 30.2,34.5 30.3,25.5 	"/>
	<polygon class="st0" points="24.3,28.8 24.3,37.7 30.2,34.5 30.3,25.5 	"/>
	<path class="st6" d="M28,38.2c-0.6,0.7-0.7,2-0.7,2.9c-0.1,1,0.2,2.1-0.2,3.3c0.2-0.5,0.9-1.2,1.1-1.7c0.4-0.6,0.8-1.3,0.8-2.2
		c0-0.7-0.2-2.2-0.7-2.3c0,0.6,0,1.7-0.3,2.2C28.2,39.9,28,38.9,28,38.2L28,38.2z"/>
	<path class="st6" d="M28.1,35.8c0.2-0.9-0.5-2.1-0.9-2.8c-0.5-0.9-1.3-1.7-1.5-2.9c0.1,0.6-0.1,1.5-0.1,2c0,0.7,0,1.5,0.5,2.3
		c0.4,0.6,1.4,1.7,1.8,1.5c-0.4-0.5-0.9-1.5-0.9-2C27.1,34.5,27.7,35.2,28.1,35.8L28.1,35.8z"/>
	<path class="st6" d="M30.5,23.5c-0.3-0.9-1.4-1.6-2.2-2.1c-0.9-0.6-2-0.9-2.7-1.8c0.4,0.4,0.6,1.3,0.9,1.8c0.3,0.6,0.7,1.3,1.5,1.8
		c0.6,0.4,2,0.9,2.3,0.5c-0.5-0.3-1.5-0.9-1.7-1.4C29,22.8,29.9,23.1,30.5,23.5L30.5,23.5z"/>
	<path class="st6" d="M30.2,13.5c-0.2-0.8-1.3-1.4-1.9-1.8c-0.8-0.5-1.7-0.8-2.4-1.6c0.3,0.4,0.5,1.2,0.8,1.6
		c0.3,0.6,0.7,1.2,1.3,1.6c0.5,0.3,1.8,0.8,2.1,0.4c-0.5-0.2-1.3-0.8-1.5-1.2C28.9,12.9,29.7,13.2,30.2,13.5L30.2,13.5z"/>
	<path class="st6" d="M32.6,23.5c0.9,0.2,2.1-0.4,2.9-0.8c0.9-0.5,1.7-1.2,2.9-1.4c-0.6,0.1-1.5-0.2-2-0.2c-0.7,0-1.5,0-2.3,0.4
		c-0.6,0.3-1.8,1.3-1.6,1.7c0.5-0.3,1.5-0.8,2.1-0.8C33.9,22.6,33.2,23.2,32.6,23.5L32.6,23.5z"/>
	<path class="st6" d="M33.2,31.7c0.3,0.1,0.7-0.1,0.9-0.3c0.3-0.1,0.6-0.4,0.9-0.4c-0.2,0-0.5-0.1-0.6-0.1c-0.2,0-0.5,0-0.7,0.1
		C33.5,31.2,33.1,31.5,33.2,31.7c0.1-0.2,0.4-0.3,0.6-0.3C33.7,31.4,33.4,31.6,33.2,31.7C33.3,31.7,33.2,31.7,33.2,31.7z"/>
	<path class="st6" d="M39.1,25.1c0.3,0.1,0.7-0.1,0.9-0.3c0.3-0.1,0.6-0.4,0.9-0.4c-0.2,0-0.5-0.1-0.6-0.1c-0.2,0-0.5,0-0.7,0.1
		C39.4,24.6,39,24.9,39.1,25.1c0.1-0.2,0.4-0.3,0.6-0.3C39.6,24.8,39.3,25,39.1,25.1L39.1,25.1z"/>
	<path class="st6" d="M33.7,27c0.3,0.1,0.7-0.1,0.9-0.3c0.3-0.1,0.6-0.4,0.9-0.5c-0.2,0-0.5-0.1-0.6-0.1c-0.2,0-0.5,0-0.7,0.1
		C33.9,26.5,33.6,26.8,33.7,27c0.1-0.2,0.4-0.3,0.6-0.3C34.1,26.7,33.9,26.9,33.7,27L33.7,27z"/>
	<path class="st6" d="M36.8,28.2c0.3,0.1,0.7-0.1,0.9-0.3c0.3-0.1,0.6-0.4,0.9-0.5c-0.2,0-0.5-0.1-0.6,0c-0.2,0-0.5,0-0.7,0.1
		C37.1,27.6,36.7,27.9,36.8,28.2c0.1-0.2,0.4-0.3,0.6-0.3C37.2,27.9,37,28.1,36.8,28.2L36.8,28.2z"/>
	<path class="st6" d="M39.1,20c0.3,0.1,0.7-0.1,0.9-0.3c0.3-0.1,0.6-0.4,0.9-0.5c-0.2,0-0.5-0.1-0.6-0.1c-0.2,0-0.5,0-0.7,0.1
		C39.4,19.5,39,19.8,39.1,20c0.1-0.2,0.4-0.3,0.6-0.3C39.6,19.7,39.3,19.9,39.1,20C39.2,20,39.1,20,39.1,20z"/>
	<path class="st6" d="M39.1,30.3c0.3,0.1,0.7-0.1,0.9-0.3c0.3-0.1,0.6-0.4,0.9-0.4c-0.2,0-0.5-0.1-0.6-0.1c-0.2,0-0.5,0-0.7,0.1
		C39.4,29.8,39,30.1,39.1,30.3c0.1-0.2,0.4-0.3,0.6-0.3C39.6,30.1,39.3,30.3,39.1,30.3L39.1,30.3L39.1,30.3z"/>
	<path class="st7" d="M38.2,47.3c0.2-0.9-0.4-2.1-0.7-2.9c-0.4-0.9-1.2-1.8-1.3-3c0.1,0.6-0.2,1.5-0.2,2c-0.1,0.7-0.1,1.5,0.3,2.3
		c0.3,0.7,1.2,1.8,1.7,1.6c-0.3-0.5-0.8-1.5-0.7-2.1C37.3,45.9,37.9,46.7,38.2,47.3C38.2,47.2,38.2,47.3,38.2,47.3z"/>
	<path class="st8" d="M63.8,34.9c0.3,0.1,0.9,0.2,1.1,0.2c0.1,0,0.2,0.2,0.3,0.5c0,0.7,0.4,1.9,0.4,2.8c0,0.3-0.2,0.6-0.4,0.6
		c-0.1,0-0.3-0.3-0.4-0.6c-0.1-0.4-0.5-1.2-0.9-1.6c-0.5-0.6-1.8-1.6-3.6-1.6c-3.1,0-5,2.9-5,6.4c0,1.5,0.2,2.8,0.9,4
		c0.9,1.6,2.4,2.8,4.4,2.8c0.3,0,0.7-0.1,1.1-0.4c0.3-0.2,0.4-0.8,0.4-1.8c0-0.8,0-1.5-0.1-1.8c-0.1-0.5-0.3-1-1.7-1.1
		c-0.3,0-0.7-0.2-0.7-0.4c0-0.2,0.3-0.3,0.8-0.3c1,0,2.1,0.1,2.7,0.1c0.5,0,2-0.1,2.8-0.1c0.4,0,0.6,0.2,0.6,0.4
		c0,0.1-0.2,0.4-0.5,0.4c-0.8,0.2-0.7,0.5-0.8,0.8c0,0.3-0.1,1.8-0.1,2.7c0,0.3,0,0.3,0.4,0.7c0.1,0.1,0.2,0.2,0.2,0.4
		c0,0.1-0.2,0.3-0.3,0.4c-0.4,0.1-1.1,0.3-2,0.5c-0.9,0.2-2.9,0.5-3.4,0.5c-2.4,0-4.7-0.7-6-1.9c-1-1-2.3-2.5-2.3-5.6
		c0-2.4,1-4,2.4-5.3c1.4-1.2,3.7-2,6.1-2C61.7,34.5,63,34.7,63.8,34.9"/>
	<path class="st8" d="M70,48.9c-0.4,0-0.6-0.2-0.6-0.3c0-0.2,0.2-0.3,0.6-0.4c0.5-0.2,0.7-0.4,0.8-0.7c0.1-0.3,0.1-2,0.1-4
		c0-0.7,0-1,0-1.3c0-0.2-0.3-0.4-0.7-0.8c-0.1-0.2-0.3-0.3-0.3-0.4c0-0.2,0.3-0.4,0.7-0.4c1-0.2,2.5-0.7,2.9-0.8
		c0.1,0,0.2,0.2,0.2,0.2c-0.1,1-0.1,4-0.1,5.3c0,0.4,0,1.1,0,1.9c0,0.6,0.2,0.8,0.8,1c0.3,0.1,0.5,0.2,0.5,0.4s-0.3,0.3-0.7,0.3
		c-0.2,0-1.4-0.1-1.9-0.1C71.5,48.8,70.3,48.9,70,48.9 M73.6,36.5c0,0.8-0.8,1.5-1.4,1.5c-0.2,0-0.7-0.1-1-0.4
		c-0.3-0.2-0.5-0.6-0.5-1.1c0-0.3,0.1-0.8,0.4-1c0.3-0.3,0.8-0.5,1.2-0.5C73.2,35,73.6,36,73.6,36.5"/>
	<path class="st8" d="M85.6,48.1c-1,0.7-2.5,1-3.4,1c-0.8,0-2.2-0.2-3.1-0.5c-0.1,0-0.2,0-0.5,0.1c-0.1,0-0.2,0.1-0.3,0.1
		c-0.1,0-0.3-0.2-0.3-0.3c0.1-1.7,0.2-5.6,0.2-7.4c0-2.1,0-4.7-0.1-5.1c0-0.2-0.1-0.4-0.4-0.6C77.2,35,77,34.9,77,34.8
		c0-0.2,0.2-0.4,0.4-0.4c0.8-0.2,1.8-0.4,2.7-0.8c0.5-0.2,0.6-0.3,0.8-0.3c0.1,0,0.2,0.2,0.2,0.4c-0.1,1.6-0.2,3.3-0.2,5.1v1.6
		c0,0.1,0,0.1,0.1,0.1c0.7-0.4,1.7-0.6,2.2-0.6c1.2,0,2.2,0.4,2.9,1c1,0.8,1.5,2,1.5,3.5C87.8,46,86.7,47.3,85.6,48.1 M83.8,41.9
		c-0.3-0.4-1.1-1-1.9-1c-0.2,0-0.4,0-0.6,0.1c-0.1,0-0.2,0.2-0.2,0.2c0,0.4,0,0.7,0,1.2c0,2,0.1,3.5,0.2,4.1c0,0.1,0.2,0.9,0.7,1.3
		c0.4,0.4,0.7,0.4,1,0.4c0.2,0,0.5-0.1,0.9-0.6c0.6-0.7,0.8-1.9,0.8-3C84.7,43.7,84.3,42.6,83.8,41.9"/>
	<path class="st8" d="M91.1,40.7c0.9-0.3,2.1-0.6,2.6-0.9c0.2-0.2,0.5-0.3,0.6-0.3c0.2,0,0.3,0.2,0.3,0.3c0,0.4-0.1,0.8-0.1,1.3
		c0,0,0.1,0.2,0.2,0.1c0.6-0.7,1.6-1.4,2.3-1.4c1,0,1.4,0.6,1.4,1c0,0.1-0.1,0.3-0.1,0.4c-0.2,0.4-1,1.4-1.2,1.4
		c-0.1,0-0.4,0-0.4-0.1c-0.2-0.2-1.1-0.7-1.5-0.7c-0.1,0-0.2,0-0.4,0.1s-0.2,0.2-0.2,0.4c0,0.4,0.1,4.2,0.1,4.6
		c0,0.7,0.2,1.1,0.5,1.2c0.2,0,0.7,0.2,0.9,0.3c0.4,0.1,0.5,0.3,0.5,0.4c0,0.2-0.3,0.3-0.6,0.3c-0.7,0-2.1-0.1-3.4-0.1
		c-0.4,0-0.9,0.1-1.4,0.1c-0.3,0-0.6-0.1-0.6-0.3c0-0.2,0.4-0.3,0.5-0.4c0.8-0.3,0.8-0.5,0.8-1.9v-3.4c0-0.5-0.1-0.8-0.2-0.9
		c-0.2-0.2-0.8-0.8-0.8-0.9C90.8,41.1,90.8,40.7,91.1,40.7"/>
	<path class="st8" d="M107.4,41c0.2,0.3,0.5,0.9,0.5,2c0,0.9-0.1,3.4-0.1,3.7c0,0.4,0.3,0.8,0.8,0.8c0.1,0,0.6-0.2,0.7-0.2
		c0.1,0,0.1,0,0.1,0c0.1,0.1,0.1,0.3,0.1,0.4c0,0.4-1.1,1.6-2.4,1.6c-0.7,0-1.4-0.1-1.8-1c0-0.1-0.2-0.1-0.2-0.1
		c-0.4,0.3-1.3,0.8-1.6,0.9c-0.2,0.1-0.6,0.2-1,0.2c-0.8,0-1.8-1-1.8-2.3c0-0.4,0.2-0.8,0.4-1.2s0.6-0.4,0.8-0.5
		c0.6-0.2,2.7-0.8,3.2-1c0.2,0,0.3-0.2,0.3-0.3c0-0.2,0.1-1.4,0-1.6c0-0.5-0.4-1.4-1.4-1.4c-0.2,0-0.4,0-0.6,0.1
		c-0.1,0-0.1,0.2-0.1,1.1c0,0.1,0,0.1-0.1,0.2c-0.1,0.1-2,1-2.2,1c-0.1,0-0.3-0.2-0.3-0.3c0-0.6,0.4-1.2,2-2.2
		c0.9-0.6,2-0.8,2.3-0.8C106.4,39.7,107.1,40.5,107.4,41 M105,47.4c0.1-0.1,0.1-0.2,0.2-0.4c0-0.2,0.1-1.2,0.1-2.1
		c0-0.1-0.1-0.2-0.1-0.2c-0.2,0-1.3,0.3-1.6,0.5c-0.3,0.2-0.4,0.3-0.4,0.9c0,1,0.8,1.5,1.2,1.5C104.5,47.6,104.9,47.5,105,47.4"/>
	<path class="st8" d="M112.4,34.2c0.9-0.2,2.2-0.4,3.2-1.1c0.1,0,0.3,0.1,0.3,0.2c-0.1,0.9-0.2,6.3-0.2,9.8c0,1,0,3.3,0.1,4
		c0,0.6,0.2,0.8,0.9,1c0.3,0.1,0.4,0.2,0.4,0.4c0,0.2-0.4,0.3-0.6,0.3c-0.5,0-2-0.1-2.4-0.1c-0.5,0-1.7,0.1-2.1,0.1
		c-0.5,0-0.7-0.2-0.7-0.3c0-0.3,0.3-0.4,0.6-0.4c0.6-0.2,0.8-0.5,0.8-1.6c0.1-1,0.1-3.6,0.1-7.1c0-1,0-2.9,0-3.6
		c0-0.3-0.2-0.4-0.6-0.8c-0.3-0.2-0.4-0.4-0.4-0.5C111.9,34.5,112.1,34.3,112.4,34.2"/>
	<path class="st8" d="M125.5,40c0.1,0,0.4,0.1,0.4,0.3c0-0.1,0.1,0.7,0.1,0.9c0,0.2-0.4,0.3-0.6,0.3h-2c-0.2,0-0.2,0.1-0.2,0.2V46
		c0,0.6,0.1,0.8,0.3,1c0.2,0.2,0.7,0.4,1,0.4c0.2,0,0.7-0.2,0.9-0.3c0.2-0.1,0.3-0.2,0.4-0.2c0.1,0,0.2,0.2,0.2,0.4
		c0,0.2-0.2,0.6-0.4,0.7c-0.6,0.7-1.6,1.1-2.6,1.1c-0.9,0-1.7-0.4-2.1-0.9c-0.3-0.4-0.4-0.6-0.4-1.6c0-0.8,0.1-4,0.1-4.8
		c0-0.2-0.4-0.3-0.9-0.5c-0.2-0.1-0.2-0.3-0.2-0.4c0-0.1,0-0.1,0.1-0.2c1.3-0.8,2-1.3,2.6-1.9c0.3-0.3,0.4-0.5,0.5-0.5
		c0.2,0,0.5,0.3,0.5,0.4v1.2c0,0.1,0.1,0.2,0.2,0.2C123.8,40,125.4,40,125.5,40"/>
	<path class="st8" d="M135.4,41c0.2,0.3,0.5,0.9,0.5,2c0,0.9-0.1,3.4-0.1,3.7c0,0.4,0.3,0.8,0.8,0.8c0.1,0,0.6-0.2,0.7-0.2
		c0.1,0,0.1,0,0.1,0c0.1,0.1,0.1,0.3,0.1,0.4c0,0.4-1.1,1.6-2.4,1.6c-0.7,0-1.4-0.1-1.8-1c0-0.1-0.2-0.1-0.2-0.1
		c-0.4,0.3-1.3,0.8-1.6,0.9c-0.2,0.1-0.6,0.2-1,0.2c-0.8,0-1.8-1-1.8-2.3c0-0.4,0.2-0.8,0.4-1.2c0.2-0.3,0.6-0.4,0.8-0.5
		c0.6-0.2,2.7-0.8,3.2-1c0.2,0,0.3-0.2,0.3-0.3c0-0.2,0.1-1.4,0-1.6c0-0.5-0.4-1.4-1.4-1.4c-0.2,0-0.4,0-0.6,0.1
		c-0.1,0-0.1,0.2-0.1,1.1c0,0.1,0,0.1-0.1,0.2c-0.1,0.1-2,1-2.2,1c-0.1,0-0.3-0.2-0.3-0.3c0-0.6,0.4-1.2,2-2.2
		c0.9-0.6,2-0.8,2.3-0.8C134.4,39.7,135,40.5,135.4,41 M133,47.4c0.1-0.1,0.1-0.2,0.2-0.4c0-0.2,0.1-1.2,0.1-2.1
		c0-0.1-0.1-0.2-0.1-0.2c-0.2,0-1.3,0.3-1.6,0.5c-0.3,0.2-0.4,0.3-0.4,0.9c0,1,0.8,1.5,1.2,1.5C132.4,47.6,132.9,47.5,133,47.4"/>
	<path class="st8" d="M140.3,40.7c0.9-0.3,2.1-0.6,2.6-0.9c0.2-0.2,0.5-0.3,0.6-0.3c0.2,0,0.3,0.2,0.3,0.3c0,0.4-0.1,0.8-0.1,1.3
		c0,0,0.1,0.2,0.2,0.1c0.6-0.7,1.6-1.4,2.3-1.4c1,0,1.4,0.6,1.4,1c0,0.1-0.1,0.3-0.1,0.4c-0.2,0.4-1,1.4-1.2,1.4
		c-0.1,0-0.4,0-0.4-0.1c-0.2-0.2-1.1-0.7-1.5-0.7c-0.1,0-0.2,0-0.4,0.1c-0.1,0.1-0.2,0.2-0.2,0.4c0,0.4,0.1,4.2,0.1,4.6
		c0,0.7,0.2,1.1,0.5,1.2c0.2,0,0.7,0.2,0.9,0.3c0.4,0.1,0.5,0.3,0.5,0.4c0,0.2-0.3,0.3-0.6,0.3c-0.7,0-2.1-0.1-3.4-0.1
		c-0.4,0-0.9,0.1-1.4,0.1c-0.3,0-0.6-0.1-0.6-0.3c0-0.2,0.4-0.3,0.5-0.4c0.8-0.3,0.8-0.5,0.8-1.9v-3.4c0-0.5-0.1-0.8-0.2-0.9
		c-0.2-0.2-0.8-0.8-0.8-0.9C140,41.1,140.1,40.7,140.3,40.7"/>
	<path class="st9" d="M125.9,32.5l-0.1-1.3c-0.2,0.5-0.6,0.8-1,1.1c-0.4,0.3-1,0.4-1.5,0.4c-1,0-1.8-0.3-2.4-1
		c-0.6-0.7-0.9-1.6-0.9-2.8c0-1.2,0.3-2.1,0.9-2.8s1.4-1,2.4-1c0.8,0,1.5,0.2,2.1,0.6s0.8,1,0.9,1.7h-0.7c-0.1-0.5-0.4-1-0.8-1.3
		c-0.4-0.3-0.9-0.5-1.5-0.5c-0.8,0-1.5,0.3-1.9,0.8c-0.5,0.6-0.7,1.3-0.7,2.4c0,1,0.2,1.8,0.7,2.4c0.5,0.6,1.1,0.9,1.9,0.9
		c0.8,0,1.4-0.2,1.9-0.7c0.4-0.5,0.7-1.1,0.7-2v0h-2.4v-0.6h3v3.7L125.9,32.5L125.9,32.5z"/>
	<path class="st9" d="M127.7,32.5v-5.2h0.6v0.9c0.2-0.4,0.4-0.6,0.6-0.8c0.3-0.2,0.6-0.3,1-0.3h0.1v0.6h-0.1c-0.5,0-0.9,0.2-1.2,0.5
		c-0.3,0.3-0.4,0.8-0.4,1.4v2.9L127.7,32.5L127.7,32.5z"/>
	<path class="st9" d="M134.9,27.3v5.2h-0.6v-0.8c-0.2,0.3-0.4,0.6-0.7,0.7c-0.3,0.2-0.6,0.2-1,0.2c-0.6,0-1-0.2-1.3-0.5
		c-0.3-0.3-0.4-0.8-0.4-1.4v-3.5h0.6v3.4c0,0.5,0.1,0.9,0.3,1.1c0.2,0.2,0.5,0.3,1,0.3c0.5,0,0.9-0.2,1.2-0.5
		c0.3-0.3,0.4-0.7,0.4-1.3v-3.1L134.9,27.3L134.9,27.3z"/>
	<path class="st9" d="M136.3,34.6v-7.3h0.6v0.9c0.2-0.4,0.4-0.6,0.7-0.8c0.3-0.2,0.7-0.3,1.1-0.3c0.7,0,1.3,0.2,1.7,0.7
		c0.4,0.5,0.6,1.2,0.6,2c0,0.9-0.2,1.5-0.6,2s-1,0.7-1.7,0.7c-0.4,0-0.8-0.1-1-0.3s-0.5-0.4-0.7-0.8v3H136.3z M136.9,29.9
		c0,0.7,0.2,1.2,0.5,1.6s0.7,0.6,1.3,0.6c0.6,0,1-0.2,1.3-0.6c0.3-0.4,0.5-0.9,0.5-1.6c0-0.7-0.2-1.3-0.5-1.6
		c-0.3-0.4-0.7-0.6-1.3-0.6c-0.6,0-1,0.2-1.3,0.6C137.1,28.6,136.9,29.2,136.9,29.9"/>
	<path class="st9" d="M141.9,29.9c0-0.9,0.2-1.6,0.6-2c0.4-0.5,1-0.7,1.8-0.7c0.8,0,1.4,0.2,1.8,0.7c0.4,0.5,0.6,1.2,0.6,2
		c0,0.9-0.2,1.5-0.6,2c-0.4,0.5-1,0.7-1.8,0.7c-0.8,0-1.4-0.2-1.8-0.7C142.1,31.5,141.9,30.8,141.9,29.9 M142.5,29.9
		c0,0.7,0.2,1.2,0.5,1.6c0.3,0.4,0.7,0.6,1.3,0.6c0.6,0,1-0.2,1.3-0.6c0.3-0.4,0.5-0.9,0.5-1.6c0-0.7-0.2-1.3-0.5-1.6
		c-0.3-0.4-0.7-0.6-1.3-0.6c-0.6,0-1,0.2-1.3,0.6C142.7,28.6,142.5,29.2,142.5,29.9"/>
</g>
</svg>
